<svg xmlns="http://www.w3.org/2000/svg" width="900" height="520" viewBox="0 0 900 520"><style>rect{fill:#f8fbff;stroke:#2563eb;stroke-width:2;rx:12}text{font-family:Arial,sans-serif;font-size:16px;fill:#111827}.small{font-size:13px}.arrow{stroke:#111827;stroke-width:2;marker-end:url(#m)}</style><defs><marker id="m" markerWidth="10" markerHeight="10" refX="8" refY="3" orient="auto"><path d="M0,0 L0,6 L9,3 z" fill="#111827"/></marker></defs><text x="300" y="35" style="font-size:24px;font-weight:bold">Auto-healing AWS Web Tier</text><rect x="350" y="60" width="200" height="60"/><text x="404" y="95">Internet Users</text><line class="arrow" x1="450" y1="120" x2="450" y2="165"/><rect x="295" y="165" width="310" height="70"/><text x="326" y="197">Application Load Balancer</text><text class="small" x="340" y="218">public subnets across two AZs</text><line class="arrow" x1="450" y1="235" x2="450" y2="280"/><rect x="330" y="280" width="240" height="55"/><text x="379" y="313">Target Group</text><line class="arrow" x1="410" y1="335" x2="250" y2="390"/><line class="arrow" x1="490" y1="335" x2="650" y2="390"/><rect x="105" y="390" width="290" height="80"/><text x="177" y="424">EC2 Web VM A</text><text class="small" x="157" y="447">NGINX / optional Docker</text><rect x="505" y="390" width="290" height="80"/><text x="577" y="424">EC2 Web VM B</text><text class="small" x="557" y="447">NGINX / optional Docker</text><rect x="35" y="250" width="230" height="75"/><text x="78" y="282">Launch Template</text><text class="small" x="79" y="304">AMI + cloud-init</text><line class="arrow" x1="265" y1="288" x2="330" y2="305"/><rect x="635" y="250" width="230" height="75"/><text x="674" y="282">Auto Scaling Group</text><text class="small" x="676" y="304">min=2 desired=2 max=3</text><line class="arrow" x1="705" y1="325" x2="650" y2="390"/><line class="arrow" x1="690" y1="325" x2="250" y2="390"/></svg>